<?xml version="1.0" standalone="no"?>
<!DOCTYPE svg PUBLIC "-//W3C//DTD SVG 20010904//EN"
 "http://www.w3.org/TR/2001/REC-SVG-20010904/DTD/svg10.dtd">
<svg version="1.0" xmlns="http://www.w3.org/2000/svg"
 width="128.000000pt" height="128.000000pt" viewBox="0 0 128.000000 128.000000"
 preserveAspectRatio="xMidYMid meet">
<metadata>
Created by potrace 1.11, written by Peter Selinger 2001-2013
</metadata>
<g transform="translate(0.000000,128.000000) scale(0.100000,-0.100000)"
fill="#000000" stroke="none">
<path d="M957 1082 c-15 -2 -25 -8 -22 -13 3 -5 -1 -6 -9 -3 -10 4 -16 1 -16
-7 0 -7 -3 -10 -6 -6 -4 3 -13 -1 -21 -9 -11 -11 -19 -12 -28 -4 -9 7 -15 7
-19 1 -4 -5 -27 -13 -51 -17 -25 -3 -43 -9 -41 -13 2 -3 -12 -7 -32 -9 -20 -1
-38 -6 -42 -10 -3 -4 -22 -7 -43 -7 -24 1 -36 -3 -33 -10 8 -23 -23 -11 -33
12 -6 13 -16 24 -23 25 -46 6 -104 2 -110 -7 -5 -6 -8 -4 -8 5 0 13 -1 13 -11
0 -8 -11 -12 -12 -16 -2 -2 6 -9 10 -14 6 -5 -3 -9 0 -9 6 0 6 -5 8 -10 5 -20
-13 -140 -14 -140 -1 0 6 -5 3 -11 -7 -8 -14 -14 -16 -25 -6 -8 6 -14 7 -14 2
0 -7 -15 -8 -40 -3 -27 5 -40 4 -40 -4 0 -6 -5 -4 -10 4 -6 9 -10 11 -10 3 0
-7 -7 -10 -16 -6 -9 3 -23 -3 -35 -15 -20 -23 -25 -37 -9 -27 6 3 10 1 10 -4
0 -6 -5 -11 -11 -11 -8 0 -7 -6 2 -17 12 -15 12 -16 -1 -8 -13 7 -13 6 -2 -7
10 -13 10 -17 0 -21 -10 -4 -10 -6 0 -6 6 -1 12 -8 12 -17 0 -9 -5 -12 -12 -8
-10 6 -10 4 -1 -7 15 -15 18 -33 5 -25 -5 3 -9 -1 -9 -9 0 -8 5 -11 11 -8 6 4
6 0 -1 -8 -7 -8 -11 -38 -10 -66 2 -39 5 -49 16 -45 10 4 13 1 9 -10 -7 -17
22 -20 34 -3 5 6 8 5 8 -4 0 -11 3 -11 17 0 9 8 14 9 10 3 -11 -19 26 -27 39
-9 10 13 12 13 17 1 6 -14 -21 -46 -39 -46 -5 0 -2 5 6 10 8 5 11 10 5 11 -5
0 -18 2 -27 4 -10 2 -21 -2 -25 -7 -3 -7 -1 -8 5 -4 7 4 12 3 12 -2 0 -5 11
-14 25 -20 17 -8 23 -17 19 -29 -5 -15 -4 -15 4 -3 7 9 7 18 1 26 -6 8 -5 13
3 17 9 3 13 -6 13 -29 0 -19 -4 -34 -8 -34 -5 0 -5 -5 -1 -12 9 -15 8 -167 -2
-176 -4 -4 -4 0 1 8 5 8 4 12 0 7 -15 -13 -14 -38 1 -44 8 -3 14 -9 14 -15 0
-5 -6 -6 -12 -2 -7 4 -3 -3 9 -15 24 -23 38 -28 27 -8 -6 9 -4 9 8 -1 12 -9
18 -10 23 -2 4 6 12 7 18 2 14 -10 27 -10 44 1 6 4 14 3 18 -3 4 -6 11 -7 17
-4 7 5 8 2 3 -6 -5 -8 -3 -11 6 -8 8 3 13 11 11 18 -2 10 0 11 11 2 10 -9 17
-9 28 1 7 6 10 8 6 3 -4 -5 -1 -16 6 -24 9 -13 9 -14 0 -8 -7 4 -13 2 -13 -3
0 -6 -5 -11 -11 -11 -5 0 -8 4 -4 9 3 5 0 13 -6 17 -7 4 -9 3 -6 -3 4 -6 -3
-10 -16 -9 -12 1 -28 -2 -35 -7 -9 -7 -17 -4 -26 8 -12 17 -13 17 -19 -4 -3
-14 -10 -19 -21 -15 -10 4 -16 1 -16 -7 0 -7 3 -9 7 -6 3 4 12 2 20 -5 11 -9
13 -8 11 2 -2 7 3 15 11 18 8 2 11 0 8 -5 -3 -5 0 -10 8 -10 8 0 17 7 19 14 4
10 11 11 25 4 10 -6 21 -7 25 -4 3 3 6 1 6 -7 0 -10 3 -10 15 0 12 10 18 10
32 -1 17 -13 17 -13 3 5 -14 18 -13 18 8 12 20 -7 22 -5 18 18 -4 23 -3 25 15
16 22 -12 25 -21 7 -16 -7 1 -10 1 -5 -1 4 -3 4 -10 1 -16 -4 -7 1 -4 11 5 16
15 17 19 4 35 -13 16 -12 17 3 5 14 -11 18 -10 26 4 8 15 9 15 15 0 5 -11 3
-15 -5 -10 -7 4 -8 3 -4 -4 4 -7 2 -12 -5 -12 -7 0 -9 -3 -6 -6 13 -13 35 18
33 44 -2 14 3 33 11 40 8 8 12 21 9 29 -3 8 -1 11 5 8 5 -4 7 -15 4 -26 -5
-14 -2 -17 9 -13 8 3 14 11 12 17 -1 7 -1 8 2 4 2 -4 9 -1 16 8 11 15 13 15
25 2 9 -12 9 -17 0 -23 -7 -4 -9 -3 -5 4 3 6 3 13 -2 16 -4 2 -14 -5 -21 -16
-11 -18 -11 -20 3 -15 11 4 16 1 17 -11 0 -15 1 -15 7 -1 4 9 15 15 25 13 9
-1 17 2 17 8 0 6 -7 7 -16 4 -9 -3 -12 -2 -9 5 4 5 1 18 -6 27 -7 9 -9 14 -5
10 5 -4 15 -3 22 3 10 8 12 6 9 -11 -2 -13 -2 -20 2 -17 3 4 12 -1 20 -11 12
-16 13 -16 7 1 -3 9 -1 17 4 17 6 0 13 -8 15 -17 3 -13 5 -14 6 -3 0 8 -4 22
-9 30 -9 13 -11 13 -20 0 -7 -12 -9 -10 -8 7 1 11 7 19 14 16 7 -2 15 1 19 6
3 6 11 9 16 5 5 -3 7 -10 3 -15 -3 -5 -10 -6 -16 -3 -7 4 -8 2 -4 -4 4 -6 14
-8 24 -5 15 6 16 5 2 -12 -13 -16 -10 -16 17 3 19 14 34 18 38 12 3 -5 12 -10
18 -10 7 0 4 5 -6 11 -9 6 -14 15 -11 21 5 7 2 8 -6 3 -8 -5 -11 -4 -7 2 7 12
61 12 73 1 3 -4 15 -3 25 2 12 7 19 6 21 -2 3 -7 7 -4 12 7 4 11 4 16 0 12 -4
-4 -14 -1 -22 6 -13 9 -14 9 -8 0 4 -7 2 -13 -3 -13 -6 0 -11 5 -11 10 0 6 -5
10 -11 10 -5 0 -7 -5 -3 -12 4 -7 3 -8 -5 -4 -6 4 -9 12 -6 17 4 5 1 9 -6 9
-7 0 -10 3 -7 6 4 3 16 1 27 -6 21 -10 27 -4 22 23 -1 5 3 6 9 2 6 -4 19 -1
28 7 15 12 16 11 3 -4 -9 -12 -10 -18 -2 -18 6 0 14 7 18 15 5 13 8 13 20 -5
8 -11 19 -17 25 -14 6 4 5 10 -3 15 -12 8 0 8 40 0 2 -1 -2 -7 -8 -14 -11 -14
-72 -15 -103 -2 -11 4 -18 3 -18 -4 0 -6 9 -11 19 -11 11 0 22 -6 24 -12 4 -9
6 -9 6 1 1 11 5 10 16 -5 10 -13 13 -14 10 -3 -4 10 0 16 10 16 8 0 15 -4 15
-8 0 -4 14 -12 30 -18 37 -12 40 -4 3 10 l-26 10 21 15 c12 8 26 13 31 9 5 -3
12 -1 16 5 4 6 11 8 16 4 5 -3 6 -10 3 -16 -4 -6 -1 -8 7 -6 8 3 13 11 11 18
-3 11 0 11 12 0 12 -9 16 -9 16 -1 0 7 4 10 9 7 5 -4 12 0 14 6 4 10 6 10 6 1
1 -15 -34 -35 -44 -25 -5 4 -5 1 0 -7 6 -10 4 -12 -6 -6 -8 5 -11 5 -7 0 4 -4
3 -14 -4 -22 -8 -11 -8 -17 2 -26 10 -9 11 -9 5 1 -4 8 2 22 15 34 22 21 23
21 36 3 8 -11 14 -13 14 -6 0 7 5 9 12 5 6 -4 8 -3 4 4 -3 6 -2 14 4 17 8 5 8
11 0 20 -7 8 -7 16 -2 19 6 3 16 -2 23 -11 8 -9 9 -14 4 -11 -6 4 -11 -2 -11
-13 0 -19 1 -19 13 -3 7 10 13 12 13 6 0 -7 5 -12 11 -12 8 0 8 4 -1 15 -6 8
-9 19 -5 25 4 6 2 9 -3 8 -6 -2 -10 2 -10 7 -1 6 5 9 12 7 12 -2 30 32 27 51
-1 5 3 6 9 2 6 -3 8 -11 5 -16 -4 -5 -2 -9 3 -9 6 0 13 7 16 16 3 8 2 12 -4 9
-6 -3 -10 -2 -10 4 0 5 5 13 10 16 6 3 10 12 10 18 0 7 -4 6 -11 -3 -9 -12 -9
-11 -4 5 11 29 17 155 9 174 -4 9 -6 22 -5 30 1 8 -3 18 -11 22 -15 10 -17 41
-3 51 6 4 2 8 -8 8 -10 0 -15 5 -12 10 3 6 1 10 -5 10 -7 0 -10 6 -7 14 3 8
-5 22 -18 32 -13 10 -22 21 -19 25 2 4 -5 10 -16 14 -11 3 -20 11 -20 16 0 6
-4 7 -10 4 -5 -3 -10 -1 -10 5 0 6 -4 8 -10 5 -5 -3 -10 -1 -10 4 0 6 -3 10
-7 10 -5 -1 -10 0 -13 1 -9 4 -105 5 -133 2z m-827 -396 c0 -3 -4 -8 -10 -11
-5 -3 -10 -1 -10 4 0 6 5 11 10 11 6 0 10 -2 10 -4z m1030 -191 c-7 -8 -17
-12 -22 -9 -6 4 -5 10 3 15 22 14 33 10 19 -6z m-351 -18 c0 -9 -2 -8 -6 1 -2
6 -10 9 -15 6 -7 -4 -8 -2 -4 5 9 13 26 5 25 -12z m-48 -1 c-6 -8 -10 -19 -9
-26 5 -22 -19 -22 -25 0 -3 11 -2 18 3 15 4 -3 13 2 20 10 7 8 15 15 17 15 3
0 0 -6 -6 -14z m-351 -176 c12 -23 12 -24 -3 -11 -10 7 -17 20 -17 29 0 18 3
16 20 -18z"/>
<path d="M44 656 c-10 -8 -17 -16 -14 -19 3 -2 14 4 24 14 23 22 18 25 -10 5z"/>
<path d="M93 605 c0 -8 4 -12 9 -9 5 3 6 10 3 15 -9 13 -12 11 -12 -6z"/>
<path d="M1246 565 c4 -8 2 -15 -4 -15 -12 0 -9 -47 3 -58 5 -4 5 1 2 11 -8
22 2 49 15 41 6 -4 5 3 -1 15 -13 24 -23 28 -15 6z"/>
<path d="M916 512 c-3 -5 1 -9 9 -9 8 0 12 4 9 9 -3 4 -7 8 -9 8 -2 0 -6 -4
-9 -8z"/>
<path d="M1045 500 c-4 -6 -10 -8 -15 -5 -5 3 -12 0 -16 -6 -4 -8 -3 -9 4 -5
7 4 12 1 12 -6 0 -9 3 -9 10 2 6 10 10 11 10 3 0 -7 5 -13 11 -13 8 0 9 4 0
13 -6 8 -8 17 -4 20 3 4 4 7 0 7 -3 0 -9 -5 -12 -10z"/>
<path d="M810 440 c0 -5 5 -10 10 -10 6 0 10 5 10 10 0 6 -4 10 -10 10 -5 0
-10 -4 -10 -10z"/>
<path d="M752 411 c-11 -7 -11 -9 0 -14 9 -3 15 1 15 9 0 8 -1 14 -1 14 -1 0
-7 -4 -14 -9z"/>
<path d="M716 378 c3 -4 11 -5 19 -1 21 7 19 12 -4 10 -11 0 -18 -5 -15 -9z"/>
<path d="M527 356 c-3 -8 -2 -18 4 -22 16 -9 22 2 11 21 -8 15 -10 16 -15 1z"/>
<path d="M550 361 c0 -6 4 -12 8 -15 5 -3 9 1 9 9 0 8 -4 15 -9 15 -4 0 -8 -4
-8 -9z"/>
<path d="M556 314 c-5 -14 -4 -15 9 -4 17 14 19 20 6 20 -5 0 -12 -7 -15 -16z"/>
<path d="M217 303 c-11 -11 -8 -20 7 -20 8 0 12 6 9 14 -6 15 -7 15 -16 6z"/>
<path d="M275 300 c-3 -5 1 -10 10 -10 9 0 13 5 10 10 -3 6 -8 10 -10 10 -2 0
-7 -4 -10 -10z"/>
<path d="M466 264 c-5 -14 -4 -15 9 -4 17 14 19 20 6 20 -5 0 -12 -7 -15 -16z"/>
<path d="M428 253 c7 -3 16 -2 19 1 4 3 -2 6 -13 5 -11 0 -14 -3 -6 -6z"/>
<path d="M316 233 c-6 -14 -5 -15 5 -6 7 7 10 15 7 18 -3 3 -9 -2 -12 -12z"/>
</g>
</svg>
